<svg xmlns="http://www.w3.org/2000/svg" width="512" height="512" viewBox="0 0 512 512">
<g>
<path d="M 194.14 168.01 C186.63,170.36 175.06,170.56 167.28,168.46 C146.31,162.81 128.33,144.24 121.16,120.84 C119.15,114.28 117.09,98.81 118.92,104.00 C119.40,105.38 119.85,108.25 119.90,110.38 C119.96,112.52 120.89,115.70 121.97,117.45 C123.05,119.20 124.14,122.24 124.38,124.22 C124.83,127.85 128.88,136.02 131.55,138.69 C132.35,139.49 133.00,140.61 133.00,141.18 C133.00,143.72 142.24,153.44 146.22,155.09 C147.75,155.72 149.00,156.58 149.00,156.99 C149.00,158.48 157.34,163.20 164.33,165.67 C173.00,168.73 179.16,169.48 184.50,168.13 C186.70,167.57 190.40,166.64 192.71,166.06 C197.83,164.78 208.67,159.39 209.73,157.59 C210.15,156.88 211.55,155.74 212.84,155.06 C214.44,154.22 215.03,153.22 214.69,151.91 C214.31,150.46 214.84,149.84 216.84,149.36 C218.30,149.01 220.15,148.22 220.94,147.61 C221.87,146.89 221.69,147.68 220.44,149.86 C216.45,156.78 205.20,164.55 194.14,168.01 ZM 409.10 263.46 C415.27,266.99 412.73,266.54 405.55,262.83 C394.43,257.10 385.56,245.61 381.52,231.72 C379.39,224.40 379.38,208.55 381.49,200.59 C383.62,192.58 392.06,176.73 393.46,178.13 C393.73,178.40 392.83,180.25 391.47,182.25 C390.11,184.26 389.00,186.53 389.00,187.31 C389.00,188.09 388.10,189.87 387.00,191.27 C385.90,192.67 385.00,194.78 385.00,195.96 C385.00,197.14 384.23,199.54 383.29,201.30 C381.02,205.53 381.17,227.50 383.50,232.00 C384.33,233.60 385.00,235.80 385.00,236.89 C385.00,237.99 385.42,239.14 385.94,239.46 C386.45,239.78 387.98,242.46 389.33,245.42 C390.82,248.65 392.64,251.07 393.90,251.47 C395.05,251.83 396.00,252.78 396.00,253.57 C396.00,254.36 396.43,255.00 396.97,255.00 C397.50,255.00 399.45,256.34 401.32,257.97 C403.18,259.61 406.68,262.08 409.10,263.46 ZM 91.21 389.88 C91.50,392.83 91.28,395.33 90.71,395.68 C90.05,396.09 89.89,391.75 90.26,382.90 C91.05,363.86 95.34,350.24 105.50,334.50 C109.85,327.74 120.00,316.88 126.87,311.62 C134.55,305.74 136.94,304.54 138.31,305.91 C139.10,306.70 138.97,307.00 137.85,307.00 C137.01,307.00 135.50,307.90 134.50,309.00 C133.50,310.10 131.84,311.00 130.80,311.00 C126.97,311.00 105.00,335.09 105.00,339.29 C105.00,340.85 104.32,341.94 103.16,342.25 C101.37,342.72 99.02,348.01 96.92,356.32 C96.39,358.41 95.34,361.11 94.59,362.32 C92.79,365.17 90.58,383.25 91.21,389.88 ZM 345.36 168.41 C338.07,170.29 326.38,170.34 319.75,168.51 C315.01,167.21 305.41,162.66 303.50,160.82 C301.86,159.25 308.06,161.10 311.81,163.31 C315.13,165.28 317.97,166.08 329.29,168.27 C333.77,169.14 336.02,169.11 339.29,168.11 C341.60,167.41 345.04,166.59 346.93,166.29 C352.41,165.41 362.01,159.29 371.06,150.90 C378.28,144.19 378.55,144.04 376.68,147.65 C372.84,155.09 357.43,165.30 345.36,168.41 ZM 352.02 476.93 C347.91,478.07 343.18,478.97 341.52,478.92 L 338.50 478.85 L 342.00 477.50 C343.92,476.76 346.91,476.12 348.63,476.08 C351.63,476.00 355.67,474.50 361.00,471.45 C362.38,470.67 364.26,470.02 365.20,470.01 C367.85,469.99 375.94,465.34 378.09,462.61 C379.16,461.25 381.55,459.64 383.40,459.03 C385.28,458.41 388.99,455.50 391.78,452.46 C394.53,449.46 397.37,447.00 398.10,447.00 C400.05,447.00 389.48,457.47 382.34,462.61 C374.64,468.16 361.79,474.22 352.02,476.93 ZM 207.59 476.99 C198.41,479.32 191.83,479.67 198.50,477.47 C200.70,476.75 203.90,476.12 205.61,476.08 C207.32,476.03 211.25,474.65 214.34,473.00 C217.43,471.35 220.60,470.00 221.39,470.00 C224.39,470.00 233.18,464.56 234.59,461.82 C235.73,459.63 236.77,458.99 239.28,458.97 C241.05,458.95 243.37,458.28 244.44,457.47 C245.51,456.66 247.35,456.00 248.52,456.00 C252.79,456.00 251.86,457.36 246.32,459.23 C243.21,460.28 238.71,462.48 236.34,464.11 C229.43,468.87 216.15,474.81 207.59,476.99 ZM 436.12 267.56 C429.60,268.94 426.17,269.11 420.75,268.28 C414.95,267.41 418.41,266.50 427.75,266.45 C436.83,266.40 438.03,266.14 445.29,262.73 C450.73,260.18 454.87,257.29 459.00,253.16 C466.17,245.99 469.02,244.43 466.30,249.15 C462.23,256.22 447.65,265.12 436.12,267.56 ZM 170.00 477.50 L 173.50 478.85 L 170.50 478.85 C163.13,478.87 146.39,472.62 134.59,465.46 C126.93,460.81 111.46,447.12 113.78,447.04 C114.48,447.02 117.36,449.48 120.18,452.50 C122.99,455.52 126.09,458.00 127.07,458.00 C130.15,458.00 132.03,459.16 133.47,461.95 C134.82,464.56 143.70,470.00 146.61,470.00 C147.40,470.00 150.57,471.35 153.66,473.00 C156.75,474.65 160.91,476.03 162.89,476.08 C164.88,476.12 168.07,476.76 170.00,477.50 ZM 404.73 440.25 C401.20,445.30 399.00,447.28 399.00,445.40 C399.00,444.19 402.46,439.00 403.27,439.00 C403.73,439.00 404.76,437.42 405.56,435.50 C406.37,433.58 407.47,432.00 408.01,432.00 C408.56,432.00 409.00,431.30 409.00,430.45 C409.00,429.59 409.85,427.23 410.88,425.20 C416.03,415.06 418.08,408.71 418.50,401.55 C418.77,396.90 421.00,395.35 421.00,399.80 C421.00,408.34 412.82,428.68 404.73,440.25 ZM 119.99 84.08 C118.84,92.17 118.00,94.19 118.00,88.85 C118.00,75.76 129.73,52.78 140.67,44.44 C143.78,42.07 144.07,41.99 143.08,43.84 C142.46,45.00 140.01,47.87 137.62,50.22 C135.24,52.58 132.97,55.51 132.58,56.75 C132.19,57.99 131.28,59.00 130.56,59.00 C129.31,59.00 125.00,67.56 125.00,70.03 C125.00,70.67 124.11,72.45 123.01,73.98 C121.86,75.60 120.59,79.83 119.99,84.08 ZM 35.55 196.74 C34.81,200.15 33.00,202.18 33.00,199.60 C33.00,196.02 38.03,184.71 42.26,178.78 C46.31,173.11 53.57,166.18 54.45,167.15 C55.35,168.14 52.82,172.15 51.59,171.67 C50.76,171.35 49.99,171.94 49.67,173.14 C49.38,174.25 48.22,175.39 47.07,175.69 C45.93,175.99 45.00,177.01 45.00,177.97 C45.00,178.92 43.65,181.12 42.00,182.84 C40.35,184.57 39.00,186.79 39.00,187.77 C39.00,188.75 38.38,190.44 37.63,191.53 C36.87,192.61 35.94,194.96 35.55,196.74 ZM 302.35 157.47 C303.80,161.24 300.61,159.37 294.69,152.98 C284.77,142.27 276.74,123.47 277.10,111.80 C277.18,109.21 277.49,109.78 278.55,114.50 C279.29,117.80 280.15,122.04 280.47,123.92 C280.78,125.81 281.56,127.97 282.19,128.73 C282.83,129.50 283.46,131.22 283.60,132.57 C283.75,133.91 284.80,136.20 285.93,137.64 C287.07,139.09 288.00,141.05 288.00,142.01 C288.00,143.75 290.96,147.03 291.04,145.37 C291.06,144.89 291.76,146.07 292.59,147.99 C294.52,152.43 297.85,156.00 300.07,156.00 C301.01,156.00 302.04,156.66 302.35,157.47 ZM 66.50 262.12 C75.89,266.70 77.28,268.79 68.50,265.12 C56.96,260.31 45.59,251.03 41.18,242.82 L 38.86 238.50 L 42.43 242.36 C44.39,244.48 46.00,246.83 46.00,247.58 C46.00,248.33 47.24,249.59 48.75,250.38 C50.26,251.17 52.62,253.03 54.00,254.53 C55.38,256.03 61.00,259.44 66.50,262.12 ZM 104.11 432.61 C105.27,433.85 106.02,435.44 105.78,436.15 C105.16,438.01 100.38,429.44 96.48,419.52 C93.04,410.75 90.40,400.27 91.39,399.28 C91.52,399.15 91.62,399.05 91.72,399.05 C92.10,399.04 92.51,400.49 94.46,407.47 L 94.47 407.50 C96.13,413.45 97.90,418.46 100.60,424.78 C101.37,426.59 102.00,428.59 102.00,429.22 C102.00,429.85 102.95,431.38 104.11,432.61 ZM 279.88 89.22 C279.27,90.36 278.43,94.49 278.02,98.40 C277.29,105.28 277.27,105.34 277.14,100.21 C276.83,88.36 284.23,66.67 291.20,58.95 C292.46,57.55 293.11,56.98 292.64,57.69 C292.16,58.40 292.08,59.75 292.44,60.71 C292.81,61.66 292.80,62.14 292.43,61.77 C291.48,60.81 288.97,63.57 288.48,66.12 C288.25,67.30 287.42,69.00 286.64,69.89 C284.24,72.62 281.00,80.72 281.00,84.01 C281.00,85.73 280.50,88.07 279.88,89.22 ZM 314.00 477.50 L 317.50 478.85 L 314.50 478.87 C307.90,478.92 281.39,469.06 279.38,465.81 C278.71,464.72 286.08,467.69 287.45,469.05 C287.97,469.57 289.22,470.00 290.22,470.00 C291.22,470.00 294.57,471.35 297.66,473.00 C300.75,474.65 304.91,476.03 306.89,476.08 C308.88,476.12 312.08,476.76 314.00,477.50 ZM 36.98 230.45 C38.16,233.04 38.96,235.90 38.76,236.82 C38.28,239.09 34.47,228.88 33.02,221.45 C32.39,218.18 32.03,212.35 32.24,208.50 L 32.61 201.50 L 32.80 209.10 C32.96,215.26 33.38,217.03 35.00,218.50 C37.21,220.50 37.58,223.02 35.92,224.68 C35.15,225.45 35.45,227.09 36.98,230.45 ZM 105.92 263.54 C99.11,266.99 97.43,266.60 103.68,263.01 C106.53,261.38 109.48,259.15 110.24,258.07 C111.00,256.98 112.85,255.63 114.35,255.06 C115.85,254.49 117.85,252.67 118.79,251.02 C120.61,247.84 123.00,246.27 123.00,248.25 C123.00,250.26 111.08,260.93 105.92,263.54 ZM 277.03 461.06 C278.95,464.64 277.65,464.88 272.50,461.90 C269.75,460.31 266.04,458.74 264.25,458.40 C262.46,458.06 261.00,457.38 261.00,456.89 C261.00,455.47 265.43,455.86 267.56,457.47 C268.63,458.28 270.95,458.95 272.71,458.97 C274.91,458.99 276.28,459.65 277.03,461.06 ZM 300.99 51.50 C300.64,51.28 299.05,51.78 297.45,52.61 L 294.54 54.12 L 297.02 51.46 C298.38,50.00 300.68,47.96 302.12,46.93 L 304.73 45.06 L 303.18 48.47 C302.33,50.35 301.35,51.71 300.99,51.50 ZM 111.93 442.74 C114.04,447.38 111.82,445.99 107.03,439.69 C105.76,438.02 105.84,437.97 108.22,439.06 C109.63,439.70 111.30,441.35 111.93,442.74 Z" fill="rgb(190,86,55)"/>
<path d="M 91.21 389.88 C90.58,383.25 92.79,365.17 94.59,362.32 C95.34,361.11 96.39,358.41 96.92,356.32 C99.02,348.01 101.37,342.72 103.16,342.25 C104.32,341.94 105.00,340.85 105.00,339.29 C105.00,335.09 126.97,311.00 130.80,311.00 C131.84,311.00 133.50,310.10 134.50,309.00 C135.50,307.90 137.01,307.00 137.85,307.00 C138.26,307.00 138.53,306.96 138.68,306.87 C144.47,316.65 156.70,333.72 161.00,338.00 C161.27,338.27 163.96,341.20 166.96,344.50 C169.97,347.80 177.40,354.91 183.46,360.30 C228.68,400.47 290.11,420.50 351.00,414.94 C371.90,413.04 398.76,406.49 414.87,399.37 C416.93,398.47 418.81,397.67 419.83,397.27 C419.24,397.71 418.63,399.25 418.50,401.55 C418.08,408.71 416.03,415.06 410.88,425.20 C409.85,427.23 409.00,429.59 409.00,430.45 C409.00,431.30 408.56,432.00 408.01,432.00 C407.47,432.00 406.37,433.58 405.56,435.50 C404.76,437.42 403.73,439.00 403.27,439.00 C402.46,439.00 399.00,444.19 399.00,445.40 C399.00,446.26 399.45,446.31 400.28,445.65 C399.07,447.08 397.79,448.51 396.44,449.93 C398.00,448.18 398.76,447.00 398.10,447.00 C397.37,447.00 394.53,449.46 391.78,452.46 C388.99,455.50 385.28,458.41 383.40,459.03 C381.55,459.64 379.16,461.25 378.09,462.61 C375.94,465.34 367.85,469.99 365.20,470.01 C364.26,470.02 362.38,470.67 361.00,471.45 C355.67,474.50 351.63,476.00 348.63,476.08 C346.91,476.12 343.92,476.76 342.00,477.50 L 338.50 478.85 L 341.52 478.92 C343.18,478.97 347.91,478.07 352.02,476.93 C359.05,474.98 367.67,471.30 374.82,467.32 C367.72,471.47 359.99,474.73 351.48,477.18 C344.62,479.15 341.32,479.47 328.00,479.41 C314.18,479.35 311.55,479.05 303.74,476.67 C298.89,475.20 294.84,473.72 290.55,471.76 C299.28,475.32 310.52,478.90 314.50,478.87 L 317.50 478.85 L 314.00 477.50 C312.08,476.76 308.88,476.12 306.89,476.08 C304.91,476.03 300.75,474.65 297.66,473.00 C294.57,471.35 291.22,470.00 290.22,470.00 C289.22,470.00 287.97,469.57 287.45,469.05 C286.08,467.69 278.71,464.72 279.38,465.81 C279.44,465.90 279.51,465.99 279.60,466.09 C278.17,465.28 276.66,464.41 275.05,463.47 C272.52,461.97 270.70,460.93 269.15,460.18 C270.30,460.71 271.47,461.31 272.50,461.90 C277.65,464.88 278.95,464.64 277.03,461.06 C276.28,459.65 274.91,458.99 272.71,458.97 C270.95,458.95 268.63,458.28 267.56,457.47 C265.43,455.86 261.00,455.47 261.00,456.89 C261.00,457.38 262.46,458.06 264.25,458.40 C265.05,458.55 266.24,458.95 267.56,459.49 C265.00,458.51 262.78,458.34 258.23,458.14 C253.70,457.95 250.13,458.19 246.82,459.06 C251.92,457.27 252.66,456.00 248.52,456.00 C247.35,456.00 245.51,456.66 244.44,457.47 C243.37,458.28 241.05,458.95 239.28,458.97 C236.77,458.99 235.73,459.63 234.59,461.82 C233.18,464.56 224.39,470.00 221.39,470.00 C220.60,470.00 217.43,471.35 214.34,473.00 C211.25,474.65 207.32,476.03 205.61,476.08 C203.90,476.12 200.70,476.75 198.50,477.47 C196.10,478.26 195.42,478.72 195.94,478.88 C186.93,479.78 176.21,480.10 171.50,479.35 C170.01,479.11 168.53,478.84 167.05,478.53 C168.35,478.74 169.51,478.85 170.50,478.85 L 173.50 478.85 L 170.00 477.50 C168.07,476.76 164.88,476.12 162.89,476.08 C160.91,476.03 156.75,474.65 153.66,473.00 C150.57,471.35 147.40,470.00 146.61,470.00 C143.70,470.00 134.82,464.56 133.47,461.95 C132.03,459.16 130.15,458.00 127.07,458.00 C126.09,458.00 122.99,455.52 120.18,452.50 C117.36,449.48 114.48,447.02 113.78,447.04 C113.55,447.05 113.49,447.19 113.59,447.44 C112.73,446.48 111.89,445.49 111.08,444.49 C112.85,446.22 113.29,445.73 111.93,442.74 C111.30,441.35 109.63,439.70 108.22,439.06 C107.32,438.64 106.74,438.39 106.45,438.34 C105.94,437.59 105.44,436.84 104.95,436.09 C105.37,436.48 105.66,436.53 105.78,436.15 C106.02,435.44 105.27,433.85 104.11,432.61 C102.95,431.38 102.00,429.85 102.00,429.22 C102.00,428.59 101.37,426.59 100.60,424.78 C97.90,418.46 96.13,413.45 94.47,407.50 L 94.46 407.47 C92.51,400.49 92.10,399.04 91.72,399.05 C91.62,399.05 91.52,399.15 91.39,399.28 C91.29,399.38 91.23,399.57 91.20,399.85 C90.99,398.47 90.81,397.09 90.66,395.70 C90.67,395.70 90.69,395.69 90.71,395.68 C91.28,395.33 91.50,392.83 91.21,389.88 ZM 119.99 84.08 C120.59,79.83 121.86,75.60 123.01,73.98 C124.11,72.45 125.00,70.67 125.00,70.03 C125.00,67.56 129.31,59.00 130.56,59.00 C131.28,59.00 132.19,57.99 132.58,56.75 C132.97,55.51 135.24,52.58 137.62,50.22 C140.01,47.87 142.46,45.00 143.08,43.84 C144.07,41.99 143.78,42.07 140.67,44.44 C139.59,45.26 138.50,46.23 137.41,47.32 C134.87,49.88 132.28,53.17 129.88,56.83 C126.11,62.60 122.81,69.27 120.66,75.55 C122.71,69.34 126.07,62.63 129.88,56.83 C132.25,53.20 134.82,49.92 137.41,47.32 C138.48,46.25 139.54,45.30 140.58,44.51 L 140.67 44.44 L 144.03 41.88 L 141.37 47.69 C135.80,59.87 133.83,68.59 133.84,81.00 C133.85,98.52 139.02,114.96 148.73,128.39 C154.10,135.81 163.90,144.37 171.43,148.23 C184.45,154.90 200.91,155.57 214.86,150.29 C214.53,150.68 214.50,151.20 214.69,151.91 C215.03,153.22 214.44,154.22 212.84,155.06 C211.55,155.74 210.15,156.88 209.73,157.59 C208.67,159.39 197.83,164.78 192.71,166.06 C190.40,166.64 186.70,167.57 184.50,168.13 C179.16,169.48 173.00,168.73 164.33,165.67 C157.34,163.20 149.00,158.48 149.00,156.99 C149.00,156.58 147.75,155.72 146.22,155.09 C142.24,153.44 133.00,143.72 133.00,141.18 C133.00,140.61 132.35,139.49 131.55,138.69 C128.88,136.02 124.83,127.85 124.38,124.22 C124.14,122.24 123.05,119.20 121.97,117.45 C120.89,115.70 119.96,112.52 119.90,110.38 C119.85,108.25 119.40,105.38 118.92,104.00 C118.58,103.04 118.38,102.79 118.28,103.06 C118.04,99.13 117.99,95.11 118.12,91.36 C118.40,92.95 119.10,90.33 119.99,84.08 ZM 302.35 157.47 C302.04,156.66 301.01,156.00 300.07,156.00 C297.85,156.00 294.52,152.43 292.59,147.99 C291.76,146.07 291.06,144.89 291.04,145.37 C290.96,147.03 288.00,143.75 288.00,142.01 C288.00,141.05 287.07,139.09 285.93,137.64 C284.80,136.20 283.75,133.91 283.60,132.57 C283.46,131.22 282.83,129.50 282.19,128.73 C281.56,127.97 280.78,125.81 280.47,123.92 C280.15,122.04 279.29,117.80 278.55,114.50 C277.73,110.83 277.36,109.67 277.20,110.55 C277.04,107.27 277.02,103.83 277.14,100.46 C277.27,105.33 277.31,105.16 278.02,98.40 C278.43,94.49 279.27,90.36 279.88,89.22 C280.50,88.07 281.00,85.73 281.00,84.01 C281.00,80.72 284.24,72.62 286.64,69.89 C287.42,69.00 288.25,67.30 288.48,66.12 C288.97,63.57 291.48,60.81 292.43,61.77 C292.80,62.14 292.81,61.66 292.44,60.71 C292.08,59.75 292.16,58.40 292.64,57.69 C293.05,57.07 292.61,57.43 291.64,58.47 C292.76,56.83 293.89,55.29 295.02,53.87 L 297.45 52.61 C299.05,51.78 300.64,51.28 300.99,51.50 C301.17,51.61 301.50,51.32 301.90,50.77 C298.63,57.26 296.05,64.56 294.41,71.94 C292.21,81.84 292.93,102.69 295.78,111.61 C302.13,131.49 317.76,147.69 334.92,152.17 C347.13,155.36 361.86,153.76 372.47,148.10 L 376.59 145.90 C375.60,146.70 373.85,148.31 371.06,150.90 C362.01,159.29 352.41,165.41 346.93,166.29 C345.04,166.59 341.60,167.41 339.29,168.11 C336.02,169.11 333.77,169.14 329.29,168.27 C317.97,166.08 315.13,165.28 311.81,163.31 C308.54,161.39 303.41,159.73 303.24,160.38 C302.75,160.03 302.27,159.67 301.80,159.30 C302.74,159.67 302.97,159.09 302.35,157.47 ZM 35.55 196.74 C35.94,194.96 36.87,192.61 37.63,191.53 C38.38,190.44 39.00,188.75 39.00,187.77 C39.00,186.79 40.35,184.57 42.00,182.84 C43.65,181.12 45.00,178.92 45.00,177.97 C45.00,177.01 45.93,175.99 47.07,175.69 C48.22,175.39 49.38,174.25 49.67,173.14 C49.99,171.94 50.76,171.35 51.59,171.67 C52.08,171.86 52.77,171.35 53.37,170.60 C50.94,175.51 48.78,184.57 48.30,192.00 C46.99,211.95 57.65,233.51 74.00,244.00 C86.79,252.21 104.28,254.48 116.81,249.57 C118.54,248.90 119.94,248.43 120.97,248.18 C120.27,248.81 119.49,249.80 118.79,251.02 C117.85,252.67 115.85,254.49 114.35,255.06 C112.85,255.63 111.00,256.98 110.24,258.07 C109.48,259.15 106.53,261.38 103.68,263.01 C99.80,265.24 98.97,266.23 100.54,265.84 C97.15,267.07 94.13,267.39 87.19,267.65 C80.31,267.91 77.34,267.85 74.15,267.00 C75.21,266.94 72.47,265.03 66.50,262.12 C61.00,259.44 55.38,256.03 54.00,254.53 C52.62,253.03 50.26,251.17 48.75,250.38 C47.24,249.59 46.00,248.33 46.00,247.58 C46.00,246.83 44.39,244.48 42.43,242.36 L 38.97 238.63 C38.64,237.97 38.31,237.31 38.00,236.64 C38.38,237.21 38.65,237.33 38.76,236.82 C38.96,235.90 38.16,233.04 36.98,230.45 C35.45,227.09 35.15,225.45 35.92,224.68 C37.58,223.02 37.21,220.50 35.00,218.50 C33.38,217.03 32.96,215.26 32.80,209.10 L 32.63 202.37 C32.74,201.57 32.87,200.77 33.02,199.98 C33.19,201.96 34.85,199.97 35.55,196.74 ZM 409.10 263.46 C406.68,262.08 403.18,259.61 401.32,257.97 C399.45,256.34 397.50,255.00 396.97,255.00 C396.43,255.00 396.00,254.36 396.00,253.57 C396.00,252.78 395.05,251.83 393.90,251.47 C392.64,251.07 390.82,248.65 389.33,245.42 C387.98,242.46 386.45,239.78 385.94,239.46 C385.42,239.14 385.00,237.99 385.00,236.89 C385.00,235.80 384.33,233.60 383.50,232.00 C381.17,227.50 381.02,205.53 383.29,201.30 C384.23,199.54 385.00,197.14 385.00,195.96 C385.00,194.78 385.90,192.67 387.00,191.27 C388.10,189.87 389.00,188.09 389.00,187.31 C389.00,186.53 390.11,184.26 391.47,182.25 C392.78,180.33 393.66,178.54 393.49,178.17 C398.21,172.66 402.94,168.79 401.69,172.62 C401.35,173.65 399.96,177.65 398.60,181.50 C393.47,196.00 394.42,211.03 401.37,225.46 C407.15,237.49 415.57,245.18 428.15,249.96 C434.11,252.23 447.42,252.73 454.50,250.95 C456.70,250.39 459.33,249.75 460.35,249.51 C461.37,249.27 462.72,248.68 463.35,248.19 C463.98,247.71 465.31,247.02 466.30,246.67 C468.03,246.05 468.03,246.14 466.30,249.15 C469.02,244.43 466.17,245.99 459.00,253.16 C454.87,257.29 450.73,260.18 445.29,262.73 C438.03,266.14 436.83,266.40 427.75,266.45 C420.32,266.49 416.61,267.07 418.33,267.75 C416.49,267.29 414.58,266.66 412.55,265.86 C412.80,265.76 411.76,264.98 409.10,263.46 ZM 126.87 311.62 C120.85,316.23 112.31,325.14 107.36,331.83 C112.70,324.30 119.23,317.47 126.87,311.62 ZM 407.24 436.40 C411.15,429.96 414.89,421.94 417.48,414.73 C414.90,422.73 411.59,429.76 407.24,436.40 ZM 383.37 237.11 C386.58,245.14 391.46,252.12 397.41,257.29 C391.08,252.03 386.32,245.16 383.37,237.11 ZM 282.16 76.00 C280.12,81.57 278.51,87.53 277.70,92.80 C277.93,90.80 278.21,88.92 278.56,87.21 C279.25,83.78 280.52,79.93 282.16,76.00 ZM 279.83 126.96 C282.17,133.96 285.84,141.28 290.15,147.35 C285.64,141.32 282.09,134.39 279.83,126.96 ZM 118.97 110.55 C119.54,114.14 120.35,118.21 121.16,120.84 C121.77,122.84 122.46,124.80 123.23,126.73 C126.56,134.92 131.08,142.30 136.51,148.56 C144.97,158.24 155.67,165.33 167.28,168.46 C155.59,165.31 144.96,158.29 136.51,148.56 C131.01,142.25 126.46,134.85 123.23,126.73 C122.41,124.70 121.66,122.62 120.98,120.50 C120.14,117.82 119.46,114.37 118.97,110.55 ZM 51.70 254.86 C55.63,258.13 60.18,261.13 64.88,263.47 C59.69,261.13 56.07,258.73 51.70,254.86 ZM 139.77 468.39 C145.66,471.49 152.17,474.25 157.93,476.16 C151.61,474.18 145.52,471.56 139.77,468.39 ZM 91.41 370.39 C90.82,374.33 90.45,378.47 90.26,382.90 C90.21,384.23 90.16,385.46 90.13,386.59 C90.08,381.14 90.52,375.72 91.41,370.39 ZM 32.52 203.26 L 32.24 208.50 C32.13,210.52 32.18,213.08 32.34,215.54 C31.97,211.42 32.03,207.29 32.52,203.26 ZM 43.89 176.64 C46.15,173.65 48.48,171.11 50.49,169.57 C50.54,169.54 50.59,169.50 50.63,169.47 C48.56,171.31 46.02,173.99 43.89,176.64 ZM 211.17 159.36 C215.30,156.34 218.62,153.01 220.44,149.86 C221.69,147.68 221.87,146.89 220.94,147.61 C220.29,148.11 218.94,148.73 217.67,149.13 C218.57,148.72 219.47,148.29 220.35,147.83 C222.14,146.89 222.14,146.95 220.35,150.04 C218.57,153.11 215.27,156.38 211.17,159.36 ZM 207.59 476.99 C216.15,474.81 229.43,468.87 236.34,464.11 C236.72,463.85 237.16,463.57 237.64,463.28 C237.19,463.57 236.73,463.88 236.26,464.20 C229.42,468.85 216.12,474.82 207.50,477.09 C206.56,477.34 205.42,477.58 204.15,477.80 C205.24,477.57 206.39,477.29 207.59,476.99 ZM 34.87 192.87 C34.99,192.53 35.11,192.19 35.23,191.85 C36.24,189.10 37.81,185.99 39.63,182.96 C37.84,186.11 36.11,189.72 34.87,192.87 ZM 387.36 186.57 C385.59,189.96 383.81,193.84 382.59,197.17 C383.61,194.12 384.95,191.08 386.68,187.80 C386.89,187.40 387.11,186.99 387.36,186.57 ZM 115.84 256.16 C119.68,252.77 122.95,249.36 123.00,248.28 C123.00,248.28 123.00,248.29 123.00,248.30 C123.00,249.49 119.80,252.80 115.84,256.16 ZM 365.52 158.69 C370.72,155.06 374.92,151.06 376.68,147.65 C377.36,146.34 377.75,145.53 377.64,145.34 L 377.96 145.17 L 376.68 147.65 L 376.51 147.98 C374.83,151.22 370.67,155.12 365.52,158.69 ZM 421.00 399.69 C420.98,397.93 420.61,397.15 420.15,397.15 C420.41,397.05 420.58,397.00 420.62,397.00 C421.04,397.00 421.15,398.01 421.00,399.69 ZM 309.80 164.50 C312.97,166.04 316.63,167.58 319.18,168.35 C315.96,167.41 312.81,166.11 309.80,164.50 ZM 303.51 45.93 L 302.12 46.93 C300.88,47.81 299.02,49.44 297.65,50.81 C299.26,49.08 300.84,47.68 302.32,46.71 ZM 136.85 305.41 C135.22,305.56 132.43,307.36 126.87,311.62 C132.62,307.21 135.32,305.42 136.85,305.41 ZM 303.66 47.41 L 304.68 45.16 L 304.95 44.99 ZM 380.18 209.19 C379.91,212.65 379.85,216.42 379.99,219.99 C379.92,218.77 379.89,217.53 379.90,216.27 C379.90,213.73 379.99,211.39 380.18,209.19 ZM 95.37 416.56 C95.73,417.55 96.10,418.55 96.48,419.52 C97.02,420.89 97.57,422.24 98.13,423.53 C97.58,422.29 97.05,421.03 96.56,419.76 C96.14,418.69 95.74,417.63 95.37,416.56 ZM 320.22 168.64 C323.74,169.53 328.53,169.93 333.32,169.84 C328.50,169.93 323.69,169.53 320.22,168.64 ZM 421.82 268.44 C422.33,268.50 422.82,268.56 423.30,268.61 C422.80,268.56 422.31,268.51 421.82,268.44 Z" fill="rgb(199,81,43)"/>
<path d="M 421.00 399.69 C421.15,398.01 421.04,397.00 420.62,397.00 C420.58,397.00 420.41,397.05 420.15,397.15 C420.05,397.15 419.94,397.19 419.83,397.27 C418.81,397.67 416.93,398.47 414.87,399.37 C398.76,406.49 371.90,413.04 351.00,414.94 C290.11,420.50 228.68,400.47 183.46,360.30 C177.40,354.91 169.97,347.80 166.96,344.50 C163.96,341.20 161.27,338.27 161.00,338.00 C156.70,333.72 144.47,316.65 138.68,306.87 C138.94,306.72 138.81,306.41 138.31,305.91 C137.93,305.53 137.48,305.35 136.85,305.41 C136.54,305.41 136.18,305.49 135.75,305.64 C137.29,304.69 138.87,303.77 140.47,302.89 C149.25,298.06 156.03,291.83 159.13,285.74 C160.24,283.56 162.01,277.44 163.05,272.14 C165.59,259.28 166.56,256.09 170.57,247.28 C188.35,208.25 230.18,186.18 272.37,193.56 C302.48,198.82 328.60,219.00 341.16,246.68 C345.11,255.40 346.59,260.24 348.94,272.14 C349.99,277.44 351.76,283.56 352.87,285.74 C355.97,291.82 362.76,298.13 370.62,302.25 C394.39,314.69 410.92,334.83 418.59,360.71 C420.67,367.73 421.30,372.32 421.68,383.50 C422.03,393.56 421.98,397.03 420.79,402.54 C420.93,401.53 421.00,400.62 421.00,399.80 C421.00,399.77 421.00,399.73 421.00,399.69 ZM 376.72 147.57 L 377.96 145.17 L 377.64 145.34 C377.56,145.21 377.24,145.38 376.59,145.90 L 372.47 148.10 C361.86,153.76 347.13,155.36 334.92,152.17 C317.76,147.69 302.13,131.49 295.78,111.61 C292.93,102.69 292.21,81.84 294.41,71.94 C296.05,64.56 298.63,57.26 301.90,50.77 C302.30,50.22 302.76,49.41 303.18,48.47 L 303.66 47.41 L 304.95 44.99 L 304.68 45.16 L 304.73 45.06 L 303.51 45.93 L 302.32 46.71 C302.02,46.91 301.72,47.12 301.42,47.34 C315.65,34.40 333.81,29.16 351.84,33.89 C361.42,36.41 368.89,41.06 376.52,49.27 C384.08,57.40 390.11,69.10 392.54,80.32 C395.05,91.93 394.20,110.75 390.66,121.50 C387.39,131.48 382.63,140.29 376.72,147.57 ZM 220.43 149.90 C222.14,146.95 222.12,146.90 220.35,147.83 C219.47,148.29 218.57,148.72 217.67,149.13 C217.38,149.22 217.11,149.29 216.84,149.36 C215.83,149.60 215.19,149.88 214.86,150.29 C200.91,155.57 184.45,154.90 171.43,148.23 C163.90,144.37 154.10,135.81 148.73,128.39 C139.02,114.96 133.85,98.52 133.84,81.00 C133.83,68.59 135.80,59.87 141.37,47.69 L 144.03 41.88 L 140.67 44.44 L 140.58 44.51 C140.44,44.61 140.31,44.71 140.18,44.82 C143.41,41.78 146.74,39.34 150.00,37.75 C166.97,29.46 185.42,30.44 201.54,40.49 C222.30,53.43 234.95,77.56 234.98,104.30 C235.00,118.16 233.01,127.12 227.30,138.81 C225.31,142.88 223.02,146.58 220.43,149.90 ZM 466.75 248.37 C468.02,246.13 467.87,246.11 466.30,246.67 C465.31,247.02 463.98,247.71 463.35,248.19 C462.72,248.68 461.37,249.27 460.35,249.51 C459.33,249.75 456.70,250.39 454.50,250.95 C447.42,252.73 434.11,252.23 428.15,249.96 C415.57,245.18 407.15,237.49 401.37,225.46 C394.42,211.03 393.47,196.00 398.60,181.50 C399.96,177.65 401.35,173.65 401.69,172.62 C402.94,168.79 398.21,172.66 393.49,178.17 C393.48,178.15 393.47,178.14 393.46,178.13 L 393.46 178.13 C398.72,171.73 405.04,166.41 411.45,163.37 C430.57,154.32 449.81,157.63 464.45,172.49 C474.86,183.05 480.00,195.30 480.00,209.52 C480.00,224.29 475.07,237.92 466.75,248.37 ZM 122.99 248.05 C122.89,247.05 122.03,247.22 120.97,248.18 C119.94,248.43 118.54,248.90 116.81,249.57 C104.28,254.48 86.79,252.21 74.00,244.00 C57.65,233.51 46.99,211.95 48.30,192.00 C48.78,184.57 50.94,175.51 53.37,170.60 C54.29,169.45 54.99,167.75 54.45,167.15 C54.23,166.90 53.60,167.16 52.72,167.78 C71.17,153.32 96.41,155.28 115.77,174.57 C127.15,185.91 132.40,199.15 132.38,216.50 C132.37,228.34 129.00,239.27 122.99,248.05 ZM 91.41 370.39 C90.52,375.72 90.08,381.14 90.13,386.59 C90.11,387.45 90.09,388.26 90.08,389.00 C89.75,380.36 90.65,371.81 92.71,363.56 C92.20,365.78 91.77,368.05 91.41,370.39 ZM 436.12 267.56 C441.79,266.36 448.20,263.60 453.73,260.26 C448.47,263.69 442.59,266.19 436.26,267.53 C436.21,267.54 436.17,267.55 436.12,267.56 ZM 194.14 168.01 C198.77,166.56 203.43,164.36 207.58,161.78 C203.20,164.64 198.35,166.85 193.07,168.40 C190.53,169.15 187.19,169.61 183.64,169.79 C187.46,169.55 191.13,168.95 194.14,168.01 ZM 277.13 99.78 C277.13,99.92 277.13,100.07 277.14,100.21 L 277.14 100.46 C277.02,103.83 277.04,107.27 277.20,110.55 C277.16,110.76 277.13,111.08 277.11,111.52 C276.86,107.69 276.87,103.73 277.13,99.78 ZM 115.84 256.16 C116.48,255.61 117.11,255.07 117.70,254.53 C115.20,257.11 112.42,259.39 109.39,261.35 C111.42,259.89 113.72,258.03 115.84,256.16 ZM 345.36 168.41 C350.75,167.02 356.80,164.22 362.20,160.87 C356.99,164.32 351.33,166.87 345.36,168.41 ZM 282.16 76.00 C281.57,77.40 281.04,78.79 280.56,80.16 C281.40,77.37 282.38,74.74 283.49,72.33 C283.79,71.67 284.10,71.01 284.42,70.37 C283.63,72.17 282.87,74.06 282.16,76.00 ZM 404.73 440.25 C405.57,439.05 406.40,437.76 407.24,436.40 C408.00,435.23 408.73,434.05 409.44,432.86 C408.25,435.01 407.05,437.01 405.86,438.76 C405.29,439.59 404.63,440.49 403.88,441.44 C404.15,441.07 404.44,440.67 404.73,440.25 ZM 51.70 254.86 C52.89,255.92 54.03,256.86 55.15,257.73 C52.43,255.77 49.96,253.62 47.74,251.26 C48.96,252.48 50.29,253.69 51.70,254.86 ZM 32.26 205.88 C32.02,209.07 32.05,212.31 32.34,215.54 C32.39,216.36 32.46,217.17 32.54,217.94 C32.01,213.88 31.92,209.85 32.26,205.88 ZM 90.58 395.70 C90.60,395.71 90.63,395.71 90.66,395.70 C90.81,397.09 90.99,398.47 91.20,399.85 C91.19,399.93 91.18,400.03 91.18,400.12 C90.94,398.65 90.74,397.17 90.58,395.70 ZM 383.87 193.75 C383.39,194.90 382.97,196.04 382.59,197.17 C382.14,198.41 381.76,199.56 381.49,200.59 C382.09,198.32 382.89,196.03 383.87,193.75 ZM 293.29 56.13 C292.74,56.88 292.19,57.66 291.64,58.47 C291.51,58.61 291.36,58.78 291.20,58.95 L 291.16 58.99 C291.86,58.02 292.57,57.06 293.29,56.13 ZM 374.58 467.46 C374.66,467.41 374.74,467.37 374.82,467.32 C377.61,465.77 380.18,464.17 382.34,462.61 C383.34,461.89 384.40,461.07 385.48,460.19 C384.37,461.11 383.31,461.93 382.34,462.63 C380.11,464.23 377.47,465.86 374.58,467.46 ZM 40.85 180.91 C40.44,181.56 40.03,182.25 39.63,182.96 C39.09,183.85 38.58,184.74 38.10,185.63 C38.93,184.03 39.85,182.45 40.85,180.91 ZM 124.26 66.75 C122.84,69.70 121.61,72.68 120.66,75.55 C120.62,75.65 120.59,75.75 120.55,75.86 C121.52,72.83 122.78,69.77 124.26,66.75 ZM 398.14 448.10 C398.87,447.28 399.59,446.46 400.28,445.65 C400.38,445.56 400.49,445.47 400.60,445.37 C399.82,446.26 398.99,447.18 398.14,448.10 ZM 383.37 237.11 C383.38,237.11 383.38,237.11 383.38,237.12 C383.48,237.39 383.58,237.66 383.68,237.93 C382.87,235.94 382.15,233.87 381.52,231.72 C382.06,233.56 382.68,235.36 383.37,237.11 ZM 418.35 267.76 C416.50,267.30 414.59,266.67 412.55,265.86 L 412.55 265.86 C414.58,266.66 416.49,267.29 418.33,267.75 ZM 118.05 94.46 C118.03,97.28 118.11,100.20 118.28,103.06 L 118.28 103.06 C118.11,100.20 118.03,97.28 118.05,94.46 ZM 118.97 110.55 C119.38,113.75 119.92,116.71 120.59,119.16 C119.92,116.70 119.38,113.74 118.97,110.52 ZM 95.37 416.56 L 95.37 416.56 C95.74,417.63 96.14,418.69 96.56,419.76 C96.09,418.57 95.65,417.39 95.24,416.20 C95.28,416.32 95.33,416.44 95.37,416.56 ZM 421.82 268.44 C421.82,268.44 421.82,268.44 421.82,268.44 C421.84,268.44 421.85,268.44 421.87,268.44 C422.18,268.49 422.49,268.53 422.80,268.56 C422.44,268.52 422.09,268.48 421.73,268.42 C421.76,268.43 421.79,268.43 421.82,268.44 Z" fill="rgb(229,113,67)"/>

</g>
</svg>